<?xml version="1.0" encoding="UTF-8" standalone="no"?>
<!DOCTYPE svg PUBLIC "-//W3C//DTD SVG 1.1//EN" "http://www.w3.org/Graphics/SVG/1.1/DTD/svg11.dtd">
<svg height="100%" stroke-miterlimit="10" style="fill-rule:nonzero;clip-rule:evenodd;stroke-linecap:round;stroke-linejoin:round;" version="1.1" viewBox="0 0 355.367 355.894" width="100%" xml:space="preserve" xmlns="http://www.w3.org/2000/svg" xmlns:vectornator="http://vectornator.io" xmlns:xlink="http://www.w3.org/1999/xlink">
<defs/>
<g id="Calque-2-copier-copier-copier" vectornator:layerName="Calque 2 copier copier copier">
<path d="M0 177.114C0 79.2969 79.2969 0 177.114 0C274.932 0 354.229 79.2969 354.229 177.114C354.229 274.932 274.932 354.229 177.114 354.229C79.2969 354.229 0 274.932 0 177.114Z" fill="#1e1e2e" fill-rule="nonzero" opacity="1" stroke="none" vectornator:layerName="Ovale 1"/>
</g>
<g id="Calque-1-copier-copier" vectornator:layerName="Calque 1 copier copier">
<path d="M249.367 298.492C239.447 294.714 228.586 289.211 226.389 277.358C223.381 261.13 258.049 245.978 265.221 255.012C281.438 275.442 256.738 311.813 233.594 289.779" fill="#f38ba8" fill-rule="nonzero" opacity="1" stroke="none" vectornator:layerName="Courbe 1"/>
<path d="M100.751 131.243C100.751 94.0509 100.618 66.8561 114.246 66.8561C127.874 66.8561 150.103 94.0509 150.103 131.243C150.103 168.171 138.069 194.224 124.575 194.649C124.478 194.652 122.143 184.348 122.143 184.348C108.515 184.348 100.751 168.435 100.751 131.243Z" fill="#f38ba8" fill-rule="nonzero" opacity="1" stroke="none" vectornator:layerName="Ovale 2"/>
<path d="M163.272 118.975C156.559 82.3352 173.547 61.7923 187.175 61.7923C200.803 61.7923 207.265 90.2742 191.675 124.379C164.272 184.327 195.148 189.674 181.52 189.674C167.892 189.674 170.44 158.097 163.272 118.975Z" fill="#f38ba8" fill-rule="nonzero" opacity="1" stroke="none" vectornator:layerName="Ovale 1"/>
<path d="M150.103 237.56C150.103 224.147 167.121 213.274 188.114 213.274C209.107 213.274 226.126 224.147 226.126 237.56C226.126 250.972 209.107 261.845 188.114 261.845C167.121 261.845 150.103 250.972 150.103 237.56Z" fill="#15171e" fill-rule="nonzero" opacity="1" stroke="none" vectornator:layerName="Ovale 4"/>
</g>
<g id="Calque-1-copier-copier_2" vectornator:layerName="Calque 1 copier copier">
<path d="M102.138 33.1345C101.859 33.453 99.0764 44.3289 96.3464 55.4684C94.2417 64.1273 91.956 73.7078 89.9315 83.2367C88.3064 90.886 86.8967 98.1345 86.0093 103.881C85.247 108.818 84.1562 113.91 83.4801 118.958C83.3753 119.742 83.2662 120.528 83.1868 121.31C82.9319 123.82 82.7872 126.301 82.9302 128.766C83.0843 131.508 83.5534 134.185 84.4698 136.818C85.7368 140.459 87.2454 144.014 88.9418 147.521C88.9464 147.531 88.9371 147.545 88.9418 147.554C90.6349 151.052 92.5349 154.487 94.5136 157.893C99.8103 167.012 105.819 175.908 111.302 184.932C111.974 186.039 112.703 187.134 113.355 188.246C113.36 188.254 113.35 188.271 113.355 188.279C115.182 191.397 116.893 194.572 118.487 197.756C118.801 198.384 119.1 199.014 119.403 199.645C120.626 202.195 121.703 204.784 122.702 207.399C123.053 208.316 123.447 209.223 123.765 210.149C124.894 213.435 125.86 216.765 126.514 220.189C126.774 221.545 126.831 222.896 126.734 224.232C126.734 224.243 126.735 224.254 126.734 224.265C126.646 225.585 127.018 259.927 127.634 261.166C136.642 279.3 154.223 280.959 180.532 292.128C191.591 296.823 209.501 308.063 213.17 308.929C219.686 310.467 225.05 311.248 230.178 310.983C235.307 310.718 240.199 309.406 245.72 306.742C254.045 302.724 264.371 300.349 269.877 293.421C270.323 292.859 270.66 292.251 270.903 291.631C270.907 291.621 270.9 291.608 270.903 291.598C271.242 290.725 271.306 289.773 271.343 288.815C271.378 287.885 271.339 286.945 271.196 285.965C271.144 285.599 271.117 285.242 271.05 284.872C270.542 282.096 269.726 279.228 269.694 276.587C266.705 279.464 263.942 281.427 261.263 282.486C259.934 283.011 258.617 283.305 257.304 283.38C255.978 283.452 254.626 283.305 253.272 282.917C251.918 282.528 250.553 281.912 249.129 281.061C247.705 280.21 246.23 279.129 244.694 277.814C241.622 275.182 238.277 271.614 234.504 267.11C235.17 266.508 235.891 266.122 236.666 265.918C237.311 265.739 238.015 265.777 238.719 265.818C238.858 265.827 238.982 265.77 239.122 265.785C239.133 265.786 239.148 265.784 239.159 265.785C239.795 265.857 240.466 266.05 241.138 266.249C241.411 266.328 241.667 266.352 241.945 266.448C242.078 266.494 242.214 266.563 242.348 266.613C243.193 266.924 244.034 267.29 244.914 267.707C244.924 267.712 244.94 267.702 244.951 267.707C248.925 269.594 253.189 272.181 257.047 272.479C261.695 272.837 265.857 269.777 270.28 268.436C270.25 266.834 270.021 265.281 269.62 263.731C269.056 261.55 268.199 259.397 267.274 257.269C267.222 257.149 267.18 257.025 267.128 256.904C266.142 254.656 265.082 252.432 264.232 250.178C261.317 242.452 259.247 234.464 257.047 226.518C255.941 222.535 254.802 218.574 253.492 214.656C252.182 210.751 250.719 206.911 248.946 203.157C247.523 200.144 245.473 197.509 242.971 195.171C241.345 193.652 239.484 192.297 237.546 190.996C236.896 190.559 236.243 190.12 235.567 189.704C234.599 189.11 233.572 188.571 232.561 188.014C230.493 186.873 228.351 185.822 226.183 184.8C222.189 182.921 218.114 181.086 214.306 179.365C204.684 175.016 194.3 172.28 184.285 168.729C186.087 162.867 188.206 157.063 190.406 151.266C190.485 151.057 190.547 150.845 190.626 150.636C192.605 145.436 194.624 140.235 196.564 135.029C197.213 133.29 197.778 131.537 198.397 129.793C199.768 125.933 201.002 122.06 202.136 118.162C203.386 113.868 204.605 109.574 205.399 105.206C205.961 102.112 206.388 99.0035 206.645 95.8616C206.977 91.8033 206.3 86.8548 205.032 81.5799C203.765 76.3045 201.904 70.7022 199.9 65.343C195.89 54.626 191.269 44.8768 189.49 40.6233C188.114 41.12 186.569 42.1636 184.908 43.5724C183.236 44.9924 181.424 46.8076 179.593 48.9074C177.761 51.0072 175.884 53.3935 174.021 55.9323C171.756 59.0187 169.597 62.4014 167.496 65.7407C164.438 70.6123 161.534 75.5503 159.432 79.8236C157.058 84.646 155.512 88.6799 155.326 90.9243C155.033 94.4651 155.506 99.1239 156.389 104.146C157.273 109.168 158.567 114.544 159.945 119.554C161.326 124.561 162.784 129.174 163.977 132.676C163.98 132.684 163.974 132.701 163.977 132.709C165.162 136.185 166.114 138.568 166.433 139.071C167.053 135.785 167.427 132.949 167.679 130.257C167.842 128.483 167.923 126.812 168.009 125.187C168.028 124.86 168.065 124.517 168.083 124.193C168.281 120.436 168.476 116.747 168.962 112.894C169.259 110.51 169.672 107.983 170.355 105.206C170.475 104.719 170.513 104.319 170.649 103.814C170.651 103.805 170.646 103.79 170.649 103.781C171.371 101.099 172.351 98.1618 173.618 94.8676C173.621 94.859 173.614 94.843 173.618 94.8344C173.976 93.9039 174.6 92.7101 175.011 91.7196C176.193 88.8645 177.475 85.8747 179.153 82.4414C180.976 78.6392 183.116 74.5035 185.751 69.7502C186.727 74.5514 188.413 79.313 189.746 84.0982C190.411 86.4896 190.973 88.8835 191.323 91.2888C191.677 93.7056 191.814 96.1033 191.579 98.5457C191.086 103.669 190.284 108.765 189.27 113.822C187.905 120.625 186.096 127.37 184.211 134.101C181.892 142.377 179.42 150.635 177.137 158.887C176.774 160.198 175.919 161.528 174.791 162.698C172.554 165.017 169.278 166.621 166.873 165.614C166.263 165.358 165.729 164.94 165.26 164.321C164.795 163.714 164.428 162.921 164.16 161.902C158.561 140.621 154.155 119.069 147.848 97.9492C147.031 95.2115 145.718 92.2342 144.219 89.1681C143.786 88.2795 143.307 87.3583 142.826 86.4509C141.825 84.5613 140.663 82.6301 139.491 80.6852C136.735 76.1116 133.74 71.4527 130.437 66.9004C127.864 63.3564 125.197 59.9095 122.592 56.6282C112.18 43.5001 102.564 33.3463 102.138 33.1345ZM110.789 70.1478C114.715 76.3615 118.697 82.663 122.519 89.0687C125.428 93.9421 128.188 98.8833 130.73 103.914C132.392 107.203 134.01 110.486 135.422 113.855C136.703 116.911 137.851 120.003 138.868 123.133C139.638 125.504 140.255 127.907 140.847 130.323C141.037 131.101 141.3 131.86 141.47 132.643C142.171 135.866 142.686 139.106 143.01 142.418C144.005 152.59 137.843 162.323 134.872 172.175C133.152 177.879 132.847 184.019 130.07 189.373C126.555 184.869 123.317 180.261 120.43 175.588C120.424 175.579 120.435 175.563 120.43 175.555C114.649 166.198 110.143 156.541 107.013 146.66C103.884 136.779 102.132 126.674 101.845 116.472C101.845 116.462 101.845 116.45 101.845 116.439C101.703 111.347 101.941 106.231 102.541 101.097C102.543 101.086 102.54 101.075 102.541 101.064C102.601 100.557 102.72 100.048 102.835 99.5398C102.884 99.1647 103.001 98.7884 103.054 98.4132C103.724 93.7144 104.637 89.0061 105.95 84.2971C107.222 79.5823 108.812 74.8515 110.789 70.1478ZM181.572 211.74C183.697 211.783 185.695 212.17 187.62 212.734C188.44 212.975 189.188 213.338 189.966 213.661C190.041 213.692 190.112 213.729 190.186 213.761C191.23 214.205 192.268 214.643 193.229 215.219C193.873 215.605 194.457 216.039 195.062 216.478C195.088 216.498 195.108 216.525 195.135 216.544C196.155 217.291 197.134 218.054 198.031 218.93C198.054 218.953 198.08 218.973 198.104 218.996C198.542 219.428 198.945 219.865 199.35 220.322C199.394 220.372 199.416 220.438 199.46 220.488C200.261 221.402 200.993 222.339 201.66 223.337C201.682 223.372 201.71 223.402 201.733 223.437C202.02 223.871 202.279 224.316 202.539 224.762C202.635 224.928 202.739 225.09 202.833 225.259C203.427 226.331 203.903 227.422 204.336 228.54C204.568 229.142 204.849 229.72 205.032 230.329C205.035 230.339 205.029 230.352 205.032 230.362C205.41 231.624 205.611 232.874 205.765 234.14C205.77 234.185 205.797 234.227 205.802 234.272C205.822 234.449 205.859 234.626 205.875 234.803C205.922 235.101 205.972 235.4 205.985 235.697C206.066 237.467 205.959 239.207 205.545 240.866C203.568 240.864 202.111 238.815 200.157 238.547C198.754 238.355 196.709 238.432 194.365 238.58C192.028 238.729 189.372 238.952 186.741 239.044C184.381 239.126 182.109 239.014 179.996 238.746C178.563 238.566 177.178 238.366 176.037 237.917C176.027 237.913 176.01 237.921 176 237.917C175.06 237.548 174.27 237.067 173.618 236.459C172.429 235.352 171.321 234.18 170.319 232.98C169.309 231.771 168.407 230.548 167.643 229.302C166.881 228.065 166.275 226.842 165.81 225.624C165.345 224.406 165.044 223.221 164.93 222.078C164.702 219.793 165.221 217.693 166.726 216.047C168.231 214.401 170.71 213.192 174.387 212.634C176.867 211.957 179.276 211.693 181.572 211.74Z" fill="#cbd4f2" fill-rule="nonzero" opacity="1" stroke="none"/>
</g>
</svg>
